<mxfile host="app.diagrams.net" modified="2023-12-08T12:01:11.855Z" agent="Mozilla/5.0 (Windows NT 10.0; Win64; x64) AppleWebKit/537.36 (KHTML, like Gecko) Chrome/119.0.0.0 Safari/537.36" etag="QR31ZqLmuCVgU6dvrUy1" version="22.1.7" type="device">
  <diagram name="Страница — 1" id="fYeKUFt25ohQWYaR64R2">
    <mxGraphModel dx="1434" dy="790" grid="1" gridSize="10" guides="1" tooltips="1" connect="1" arrows="1" fold="1" page="1" pageScale="1" pageWidth="827" pageHeight="1169" math="0" shadow="0">
      <root>
        <mxCell id="0" />
        <mxCell id="1" parent="0" />
        <mxCell id="kxto2gz9lXvZrXv1a-Yy-1" value="&amp;nbsp; 1. Главное меню&lt;br&gt;&lt;br&gt;&lt;br&gt;&lt;br&gt;" style="rounded=0;whiteSpace=wrap;html=1;align=left;" vertex="1" parent="1">
          <mxGeometry x="100" y="110" width="210" height="80" as="geometry" />
        </mxCell>
        <mxCell id="kxto2gz9lXvZrXv1a-Yy-3" value="1. Показать список групп" style="rounded=0;whiteSpace=wrap;html=1;" vertex="1" parent="1">
          <mxGeometry x="130" y="140" width="150" height="30" as="geometry" />
        </mxCell>
        <mxCell id="kxto2gz9lXvZrXv1a-Yy-6" value="" style="rounded=0;whiteSpace=wrap;html=1;" vertex="1" parent="1">
          <mxGeometry x="354" y="80" width="120" height="60" as="geometry" />
        </mxCell>
      </root>
    </mxGraphModel>
  </diagram>
</mxfile>
